<?xml version="1.0" encoding="UTF-8" standalone="no"?>
<!-- Created with Inkscape (http://www.inkscape.org/) -->

<svg
   width="194.83539mm"
   height="22.411383mm"
   viewBox="0 0 194.83538 22.411382"
   version="1.1"
   id="svg5"
   xml:space="preserve"
   sodipodi:docname="onda.svg"
   inkscape:version="1.2.2 (732a01da63, 2022-12-09)"
   xmlns:inkscape="http://www.inkscape.org/namespaces/inkscape"
   xmlns:sodipodi="http://sodipodi.sourceforge.net/DTD/sodipodi-0.dtd"
   xmlns="http://www.w3.org/2000/svg"
   xmlns:svg="http://www.w3.org/2000/svg"><sodipodi:namedview
     id="namedview6"
     pagecolor="#ffffff"
     bordercolor="#000000"
     borderopacity="0.25"
     inkscape:showpageshadow="2"
     inkscape:pageopacity="0.0"
     inkscape:pagecheckerboard="0"
     inkscape:deskcolor="#d1d1d1"
     inkscape:document-units="mm"
     showgrid="false"
     inkscape:zoom="1.6676315"
     inkscape:cx="554.37907"
     inkscape:cy="88.748623"
     inkscape:window-width="1366"
     inkscape:window-height="705"
     inkscape:window-x="-8"
     inkscape:window-y="-8"
     inkscape:window-maximized="1"
     inkscape:current-layer="svg5" /><defs
     id="defs2" /><g
     id="layer1"
     transform="rotate(0.8674475,11422.524,-14415.708)"><path
       style="fill:#ffffff;fill-opacity:1;stroke-width:0.264583"
       d="m 314.96238,191.84895 c -1.16201,-0.53978 -2.47121,-2.28018 -3.93711,-5.23388 -2.03767,-4.10576 -5.71276,-8.9148 -7.3829,-9.66089 -1.27662,-0.57028 -3.95115,-0.53937 -5.37264,0.0621 -2.28732,0.96783 -3.4789,2.44645 -4.63717,5.75422 -0.62174,1.77552 -1.36341,2.54807 -2.4215,2.52231 -0.75499,-0.0184 -1.90673,-1.15686 -2.22954,-2.20387 -0.44764,-1.45186 -1.18628,-1.34717 -1.99777,0.28312 -0.87391,1.75575 -1.20589,2.05312 -2.26333,2.02737 -1.52093,-0.037 -2.48076,-1.00603 -3.79766,-3.83392 -1.3794,-2.96211 -2.43496,-4.05891 -4.55897,-4.7371 -3.28266,-1.04815 -6.35001,0.43972 -8.26228,4.00772 -2.43489,4.54314 -4.11938,5.25132 -8.11921,3.41342 -2.97286,-1.36603 -6.5976,-1.6394 -18.62444,-1.40461 -9.28587,0.18127 -9.6348,0.20783 -13.49368,1.02687 -3.86153,0.81961 -8.12777,1.08899 -8.11373,0.51232 0.003,-0.12496 0.98918,-0.27223 2.19142,-0.32725 1.20225,-0.0551 3.92231,-0.49012 6.0446,-0.96686 4.54636,-1.02129 6.79426,-1.18305 17.89603,-1.28777 8.46984,-0.0799 10.07762,-0.19538 13.91081,-0.99927 2.94759,-0.61816 3.93025,-1.19689 7.40688,-4.3622 3.29841,-3.00306 3.95606,-3.43927 6.12941,-4.06547 3.87133,-1.11546 5.34219,-0.26608 8.71278,5.03132 1.3258,2.08372 3.09281,3.63684 4.08365,3.58937 1.28198,-0.0614 1.84165,-0.68776 3.46789,-3.88092 0.89702,-1.76132 1.69747,-3.20077 1.77878,-3.19879 0.0813,0.002 0.0776,0.17409 -0.008,0.38247 -0.11917,0.2893 0.0288,0.36003 0.62606,0.29918 0.43017,-0.0438 0.77925,0.0382 0.77575,0.18217 -0.004,0.14404 -0.21416,0.23561 -0.46812,0.20351 -1.01653,-0.12847 -1.17892,-0.0317 -0.73332,0.4359 0.2704,0.2839 0.49586,0.35149 0.60995,0.18286 0.0995,-0.14713 0.4595,-0.34708 0.79992,-0.44435 0.38446,-0.10984 0.56817,-0.31941 0.48494,-0.55319 -0.0786,-0.22072 0.0301,-0.37234 0.26277,-0.36668 0.21822,0.005 0.47241,-0.17399 0.56487,-0.39845 0.0925,-0.22446 0.32977,-0.34151 0.52736,-0.26013 0.20475,0.0843 0.36334,-0.0207 0.36878,-0.24424 0.007,-0.29054 0.2144,-0.35098 0.79966,-0.23312 0.43456,0.0875 0.79278,0.0497 0.79603,-0.084 0.003,-0.13371 0.51038,-0.17311 1.12695,-0.0876 0.64178,0.089 0.99059,0.0571 0.81593,-0.0747 -0.21225,-0.16015 -0.10764,-0.31756 0.34375,-0.5173 0.35686,-0.1579 0.59499,-0.20454 0.52918,-0.10363 -0.0658,0.10091 -0.0191,0.35554 0.10399,0.56586 0.18243,0.3119 0.26293,0.28715 0.43678,-0.13434 0.19698,-0.47756 0.22367,-0.46633 0.3523,0.14833 0.0905,0.4325 0.35299,0.70117 0.75067,0.76835 0.39356,0.0665 0.54991,-0.002 0.4387,-0.19213 -0.0951,-0.16249 -0.28527,-0.22966 -0.42274,-0.14926 -0.13745,0.0804 -0.24686,0.0201 -0.24311,-0.13393 0.0108,-0.44392 0.48988,-0.31549 1.06138,0.28454 0.28905,0.30348 0.64195,0.48368 0.78424,0.40047 0.14227,-0.0833 0.25583,-0.034 0.25234,0.10942 -0.003,0.14339 0.16383,0.30336 0.37183,0.35549 0.51474,0.12901 2.8889,2.30223 5.81393,5.32188 2.37047,2.44712 2.45862,2.50798 3.67562,2.53761 0.85692,0.0209 1.46686,-0.13414 1.95011,-0.49557 0.7951,-0.59468 2.08272,-2.99736 2.8629,-5.34213 l 0.52413,-1.5752 0.0533,1.0981 c 0.049,1.00991 0.12095,1.11009 0.89594,1.24745 1.02803,0.18218 1.24135,0.0799 1.25797,-0.60275 0.008,-0.30957 -0.10672,-0.45907 -0.27542,-0.36038 -0.15858,0.0928 -0.12577,-0.0781 0.0729,-0.3796 0.19867,-0.30152 0.43773,-0.54637 0.53124,-0.54409 0.0935,0.002 0.24151,-0.2443 0.32886,-0.54795 0.0921,-0.32029 0.28088,-0.47248 0.44954,-0.36247 0.21222,0.1384 0.20463,0.28832 -0.0281,0.55526 -0.38734,0.44425 0.0379,0.50263 0.49429,0.0678 0.39318,-0.37448 0.44364,-0.82695 0.0677,-0.60707 -0.14766,0.0863 -0.26532,0.0273 -0.26146,-0.13139 0.004,-0.15863 0.18654,-0.35233 0.40596,-0.43045 0.21941,-0.0781 0.32777,-0.26371 0.24079,-0.41242 -0.23691,-0.40505 0.48748,-0.72221 1.2374,-0.54178 0.47045,0.11319 0.5577,0.083 0.30383,-0.10503 -0.2923,-0.21651 -0.27085,-0.30886 0.11959,-0.51505 0.30066,-0.15877 0.41713,-0.4159 0.31646,-0.69862 -0.0939,-0.26365 -0.0535,-0.3784 0.0982,-0.27942 0.14166,0.0924 0.25516,0.42886 0.25224,0.74771 -0.005,0.57883 -0.004,0.57878 0.53851,-0.0419 0.50164,-0.57345 0.56853,-0.5861 0.8623,-0.1631 0.3357,0.48337 1.233,0.36939 1.24584,-0.15824 0.005,-0.19341 -0.10057,-0.1866 -0.31809,0.0206 -0.39041,0.37185 -0.75066,0.39481 -0.7422,0.0473 0.01,-0.39615 1.88888,-0.77869 2.36878,-0.48219 0.32944,0.20353 0.26473,0.25479 -0.31193,0.24713 -0.40016,-0.006 -0.73042,0.10638 -0.73387,0.24822 -0.004,0.14547 0.3413,0.19713 0.7911,0.11849 0.51426,-0.0899 0.79476,-0.032 0.79001,0.16323 -0.005,0.19541 0.24293,0.24622 0.69923,0.14344 0.63092,-0.14212 0.68871,-0.097 0.53961,0.42127 -0.10874,0.3781 -0.0318,0.63613 0.22079,0.74018 0.21327,0.0878 0.32117,0.3214 0.23979,0.51897 -0.0814,0.19759 -0.0257,0.36223 0.12382,0.36587 0.14949,0.004 0.19693,0.12143 0.10541,0.26175 -0.0916,0.14032 -0.0472,0.49154 0.0985,0.78047 0.3408,0.67583 1.20386,0.62459 2.3306,-0.13838 0.48102,-0.32573 0.87127,-0.45659 0.86723,-0.29081 -0.005,0.18895 0.13802,0.16296 0.38225,-0.0696 0.66041,-0.62902 1.55325,-0.36368 2.11309,0.62796 0.70125,1.24211 2.95886,3.8082 3.35898,3.81794 0.1793,0.004 0.45947,0.17696 0.62259,0.38355 0.33202,0.42046 1.41183,0.81085 1.189,0.42986 -0.0783,-0.1339 0.0502,-0.23876 0.28559,-0.23303 0.23539,0.006 0.35097,0.12849 0.25686,0.27278 -0.0941,0.1443 0.0252,0.34322 0.26499,0.44201 0.23986,0.0988 0.53189,0.0328 0.64897,-0.14671 0.23834,-0.36546 1.33604,-0.10126 1.64676,0.39635 0.11691,0.18723 0.1929,0.12603 0.20247,-0.16307 0.0112,-0.33701 0.23098,-0.45753 0.80883,-0.44346 0.45064,0.011 0.76807,-0.10996 0.73464,-0.27986 -0.0324,-0.16455 0.10788,-0.35523 0.31182,-0.42374 0.22703,-0.0763 0.2963,-0.0105 0.17874,0.16976 -0.2464,0.37781 -0.14293,0.37297 0.91762,-0.0429 0.78932,-0.30948 0.92801,-0.5319 1.42242,-2.28115 1.51795,-5.37053 4.22494,-8.30324 7.31941,-7.92967 1.80351,0.21771 2.98466,1.25725 3.95106,3.47735 l 0.7813,1.79487 0.8451,-0.37646 c 0.78738,-0.35075 0.90901,-0.33477 1.78078,0.23379 0.51461,0.33563 0.93155,0.77907 0.92653,0.98542 -0.005,0.20635 0.17643,0.37971 0.40323,0.38523 0.2268,0.006 0.34703,0.11023 0.26715,0.23269 -0.0799,0.12246 0.14196,0.50592 0.49296,0.85212 0.351,0.34621 0.63247,0.86371 0.6255,1.14998 -0.0206,0.84435 0.91061,3.96913 1.46837,4.9275 0.54186,0.93106 1.0817,0.97895 0.86917,0.0771 -0.19623,-0.83268 0.2247,-2.3594 0.80214,-2.90939 0.30488,-0.29039 0.88892,-0.49339 1.38645,-0.48192 0.71165,0.0164 1.10644,0.29944 2.29288,1.6438 1.34351,1.52235 1.50664,1.62505 2.60666,1.64094 0.6454,0.01 1.65395,-0.15167 2.24122,-0.35778 0.72112,-0.25306 2.4428,-0.38285 5.30298,-0.39976 4.28862,-0.0254 7.84238,-0.16745 14.57058,-0.58252 3.45271,-0.213 4.00184,-0.17966 7.89434,0.47933 3.01537,0.51049 4.69271,0.67057 6.00711,0.5733 1.15121,-0.0852 1.82121,-0.0381 1.81718,0.12777 -0.018,0.73912 -3.60575,0.8552 -7.01906,0.22711 -3.26409,-0.60064 -7.84022,-0.76237 -11.23846,-0.39718 -1.24054,0.13332 -5.05421,0.23793 -8.47483,0.23247 -3.42062,-0.005 -6.58933,0.0366 -7.04156,0.0933 -0.45224,0.0568 -1.95028,0.78837 -3.32899,1.62576 -1.37871,0.83739 -2.596,1.52035 -2.70508,1.51769 -0.38613,-0.009 -1.00924,-0.86344 -0.99699,-1.36648 0.0154,-0.63298 0.005,-0.63292 -1.45819,0.0122 -0.69274,0.30527 -1.4514,0.4594 -1.79403,0.36448 -0.46408,-0.12857 -0.69731,0.006 -1.06833,0.61779 -0.60561,0.99813 -2.14397,1.6122 -3.49909,1.39674 -2.24152,-0.3564 -3.76842,-3.07577 -4.09556,-7.29406 -0.0678,-0.87504 -0.18536,-2.00932 -0.26112,-2.52064 -0.12832,-0.86611 -0.15047,-0.88501 -0.32396,-0.27653 -0.10238,0.35923 -0.54274,0.8249 -0.9785,1.03482 -0.43576,0.20993 -0.83441,0.47072 -0.88588,0.57955 -0.0515,0.10882 -0.20081,0.12793 -0.33186,0.0424 -0.13105,-0.0855 -0.2411,-0.0393 -0.24455,0.10266 -0.003,0.14194 0.14104,0.32174 0.3211,0.39954 0.19557,0.0845 0.14081,0.14534 -0.13601,0.15107 -0.30912,0.006 -0.45992,-0.18856 -0.45296,-0.58562 0.008,-0.43483 -0.0532,-0.5 -0.22573,-0.24183 -0.15848,0.23715 -0.44052,0.28302 -0.85742,0.13944 -0.53665,-0.18482 -0.57693,-0.15783 -0.29577,0.19823 0.26733,0.33854 0.24942,0.43927 -0.10026,0.56375 -0.28468,0.10137 -0.37421,0.32859 -0.27028,0.68599 0.0893,0.307 0.0353,0.53148 -0.12693,0.52753 -0.25874,-0.006 -0.38293,-0.37421 -0.29272,-0.86728 0.0199,-0.10869 -0.0858,-0.20058 -0.2349,-0.20421 -0.33617,-0.008 -0.87654,1.25788 -0.68018,1.59362 0.0791,0.13528 0.0376,0.24337 -0.0922,0.24021 -0.42803,-0.0104 -0.58033,-0.35695 -0.29879,-0.67984 0.19509,-0.22377 0.16128,-0.36513 -0.11449,-0.47874 -0.21525,-0.0887 -0.47629,-0.031 -0.5801,0.12819 -0.1143,0.17524 -0.0665,0.21789 0.12122,0.1081 0.17049,-0.0997 0.3069,-0.0552 0.30315,0.0988 -0.004,0.15407 -0.15565,0.27833 -0.33755,0.27612 -0.2205,-0.002 -0.20056,0.0847 0.0597,0.26207 0.21478,0.14633 0.25442,0.26457 0.088,0.26275 -0.16633,-0.002 -0.3807,0.18669 -0.47636,0.41891 -0.13203,0.3205 -0.0606,0.38275 0.29622,0.25834 0.37285,-0.12997 0.3471,-0.0455 -0.12439,0.40842 l -0.59453,0.57232 -0.72302,-0.80871 c -1.18642,-1.32704 -2.03689,-1.80976 -2.64671,-1.50224 -0.2898,0.14613 -1.02728,1.127 -1.63883,2.1797 -1.90637,3.2815 -4.29192,4.74858 -6.5325,4.01739 -1.22799,-0.40074 -2.11509,-1.50214 -3.16592,-3.93071 -0.4569,-1.05595 -1.19565,-2.23505 -1.65437,-2.64052 -1.21725,-1.07592 -2.17125,-0.99075 -4.23674,0.37825 -2.22844,1.47698 -2.8271,1.46203 -4.51563,-0.11295 -1.09019,-1.01677 -1.48984,-1.22726 -2.37094,-1.24871 -0.58285,-0.0142 -1.52573,0.19781 -2.09529,0.47111 -1.24926,0.59946 -1.73113,1.64273 -2.36539,5.12115 -0.91969,5.04381 -2.43495,7.34696 -4.84131,7.35864 -0.65097,0.003 -1.54438,-0.16185 -1.98536,-0.3667 z m 3.74824,-13.18154 c 0.0928,-0.22532 0.27652,-0.33937 0.40824,-0.25347 0.13173,0.0859 0.20463,-0.0536 0.16201,-0.31009 -0.0427,-0.25648 -0.0844,-0.5558 -0.0929,-0.66518 -0.008,-0.10938 -0.23418,-0.2042 -0.50156,-0.21071 -0.37264,-0.009 -0.49953,0.20413 -0.54349,0.91308 -0.059,0.95084 0.26798,1.25398 0.56771,0.52637 z m -23.55004,-4.39423 c 0.004,-0.14548 -0.1126,-0.2674 -0.25808,-0.27094 -0.14547,-0.004 -0.2674,0.11258 -0.27094,0.25806 -0.004,0.14548 0.11259,0.2674 0.25806,0.27094 0.14548,0.004 0.26741,-0.11258 0.27096,-0.25806 z m 24.68612,2.4537 c 0.0934,-0.14329 0.2224,-0.25924 0.28655,-0.25768 0.0642,0.002 0.11375,0.12186 0.11021,0.26734 -0.004,0.14548 -0.1325,0.26144 -0.28656,0.25769 -0.15407,-0.004 -0.20365,-0.12406 -0.1102,-0.26735 z m -26.46126,-3.17807 c 0.25753,-0.25681 0.53901,-0.39261 0.6255,-0.3018 0.0865,0.0908 -0.12419,0.30094 -0.46822,0.46692 -0.59798,0.28851 -0.6049,0.28125 -0.15728,-0.16512 z m 2.34542,-0.79186 c 0.005,-0.10449 0.11319,-0.34628 0.24092,-0.53734 0.18893,-0.28258 0.25885,-0.27261 0.37492,0.0534 0.0785,0.22041 -0.03,0.46222 -0.24091,0.53734 -0.21098,0.0751 -0.37969,0.0511 -0.37493,-0.0534 z m 25.65472,0.55114 c 0.004,-0.15406 0.12406,-0.20365 0.26735,-0.1102 0.14329,0.0934 0.25924,0.2224 0.25768,0.28656 -0.002,0.0642 -0.12186,0.11374 -0.26734,0.11019 -0.14548,-0.004 -0.26144,-0.13249 -0.25769,-0.28655 z"
       id="path954" /></g></svg>
