<?xml version="1.0" encoding="UTF-8" standalone="no"?>
<svg
   version="1.1"
   viewBox="0.00 0.00 356.00 125.00"
   id="svg30"
   sodipodi:docname="sonnus.svg"
   inkscape:version="1.2.2 (732a01da63, 2022-12-09)"
   xmlns:inkscape="http://www.inkscape.org/namespaces/inkscape"
   xmlns:sodipodi="http://sodipodi.sourceforge.net/DTD/sodipodi-0.dtd"
   xmlns="http://www.w3.org/2000/svg"
   xmlns:svg="http://www.w3.org/2000/svg">
  <defs
     id="defs34" />
  <sodipodi:namedview
     id="namedview32"
     pagecolor="#ffffff"
     bordercolor="#000000"
     borderopacity="0.25"
     inkscape:showpageshadow="2"
     inkscape:pageopacity="0.0"
     inkscape:pagecheckerboard="0"
     inkscape:deskcolor="#d1d1d1"
     showgrid="false"
     inkscape:zoom="1.7247191"
     inkscape:cx="150.16938"
     inkscape:cy="82.332248"
     inkscape:window-width="1366"
     inkscape:window-height="705"
     inkscape:window-x="-8"
     inkscape:window-y="-8"
     inkscape:window-maximized="1"
     inkscape:current-layer="svg30" />
  <path
     fill="#e73c1e"
     d="   M 146.33 38.77   A 34.02 34.02 0.0 0 1 112.31 72.79   A 34.02 34.02 0.0 0 1 78.29 38.77   A 34.02 34.02 0.0 0 1 112.31 4.75   A 34.02 34.02 0.0 0 1 146.33 38.77   Z   M 102.29 19.67   A 0.40 0.40 0.0 0 0 101.67 20.00   L 101.67 57.90   A 0.40 0.40 0.0 0 0 102.29 58.23   L 130.61 39.28   A 0.40 0.40 0.0 0 0 130.61 38.62   L 102.29 19.67   Z"
     id="path2"
     style="fill:#172bde;fill-opacity:1" />
  <path
     fill="#e73c1e"
     d="   M 54.49 57.73   L 54.53 45.19   Q 54.53 44.74 54.08 44.73   Q 42.30 44.49 32.39 44.76   Q 26.81 44.92 22.82 43.41   C 16.10 40.87 10.91 35.73 9.43 28.60   C 7.43 18.91 12.60 9.51 21.80 6.16   Q 25.78 4.70 32.38 4.91   Q 39.28 5.13 45.92 4.91   C 53.54 4.65 59.65 6.23 64.60 12.07   Q 65.24 12.82 64.54 13.52   L 57.02 21.02   A 0.73 0.72 -46.5 0 1 56.02 21.05   C 53.93 19.16 51.40 18.23 48.59 18.24   Q 35.76 18.28 24.23 18.25   Q 23.53 18.25 23.53 18.96   L 23.57 31.26   A 0.68 0.68 0.0 0 0 24.25 31.94   Q 36.31 32.00 49.35 31.89   Q 52.81 31.85 55.56 32.84   C 62.83 35.44 68.45 42.99 68.97 50.21   C 69.58 58.79 64.76 67.24 56.57 70.27   Q 52.88 71.63 47.35 71.46   Q 38.83 71.21 29.83 71.46   Q 22.83 71.65 19.17 70.31   Q 13.60 68.26 9.90 63.22   Q 9.20 62.26 10.04 61.43   L 17.49 54.03   Q 17.92 53.60 18.31 54.07   C 20.43 56.71 23.35 58.32 26.79 58.30   Q 41.11 58.18 53.93 58.28   Q 54.49 58.28 54.49 57.73   Z"
     id="path4"
     style="fill:#172bde;fill-opacity:1" />
  <path
     fill="#e73c1e"
     d="   M 198.80 18.99   L 170.02 18.98   A 0.50 0.49 -89.4 0 0 169.52 19.48   L 169.52 70.95   A 0.47 0.46 -0.0 0 1 169.05 71.41   L 157.61 71.40   Q 156.87 71.40 156.87 70.66   Q 156.90 52.45 156.83 34.42   Q 156.75 16.37 171.26 8.24   C 177.02 5.01 184.83 4.04 191.26 5.83   Q 205.97 9.93 210.68 24.34   Q 212.06 28.58 212.05 34.99   Q 212.01 52.72 212.03 70.77   Q 212.03 71.39 211.42 71.39   L 200.03 71.43   A 0.66 0.65 -0.0 0 1 199.37 70.78   L 199.35 19.55   Q 199.35 18.99 198.80 18.99   Z"
     id="path6"
     style="fill:#172bde;fill-opacity:1" />
  <path
     fill="#e73c1e"
     d="   M 306.15 19.01   L 306.14 31.25   Q 306.14 31.93 306.81 31.92   Q 320.76 31.81 334.10 32.01   C 342.74 32.14 350.79 41.78 351.46 49.92   C 352.18 58.63 347.35 67.25 338.96 70.30   Q 335.29 71.63 329.60 71.48   Q 320.15 71.23 311.44 71.47   C 303.15 71.69 297.20 69.71 292.40 63.19   Q 291.77 62.33 292.52 61.58   L 300.04 54.01   A 0.53 0.53 0.0 0 1 300.84 54.06   C 302.82 56.70 305.77 58.29 309.11 58.28   Q 324.00 58.22 336.56 58.26   A 0.49 0.49 0.0 0 0 337.05 57.77   L 337.05 45.04   Q 337.05 44.73 336.74 44.73   Q 326.82 44.51 315.10 44.71   Q 309.03 44.82 305.37 43.43   C 293.90 39.07 287.62 26.44 293.90 15.11   C 298.46 6.88 305.89 4.59 315.03 4.90   Q 321.51 5.12 327.89 4.92   C 336.11 4.67 342.17 6.10 347.35 12.35   A 0.70 0.70 0.0 0 1 347.31 13.30   L 339.52 21.07   A 0.75 0.75 0.0 0 1 338.45 21.06   C 336.52 19.06 333.86 18.21 331.12 18.23   Q 318.99 18.31 306.91 18.25   Q 306.15 18.24 306.15 19.01   Z"
     id="path8"
     style="fill:#172bde;fill-opacity:1" />
  <path
     fill="#e73c1e"
     d="   M 266.55 57.97   L 266.55 6.85   Q 266.55 6.24 267.16 6.24   L 278.53 6.26   Q 279.26 6.26 279.26 6.99   Q 279.31 27.08 279.18 46.66   C 279.09 60.10 267.45 71.25 254.54 72.56   C 237.92 74.23 224.13 61.38 224.22 44.62   Q 224.32 25.51 224.25 6.95   Q 224.25 6.24 224.96 6.25   L 236.26 6.26   Q 237.01 6.26 237.01 7.01   L 236.99 58.24   A 0.51 0.50 0.0 0 0 237.50 58.74   L 265.78 58.73   Q 266.55 58.73 266.55 57.97   Z"
     id="path10"
     style="fill:#172bde;fill-opacity:1" />
  <path
     fill="#fbfbfb"
     d="   M 176.24 93.12   L 176.25 89.01   Q 176.25 88.51 176.74 88.49   L 178.44 88.40   Q 178.88 88.38 178.88 88.82   L 178.88 93.17   Q 178.88 93.72 179.42 93.73   L 186.13 93.85   A 0.64 0.63 -89.1 0 1 186.75 94.50   L 186.74 94.91   Q 186.73 95.79 185.84 95.78   L 179.48 95.70   Q 178.88 95.69 178.88 96.28   Q 178.82 102.95 178.95 108.74   C 179.04 113.20 183.00 113.36 186.30 112.77   Q 187.32 112.59 187.44 113.62   L 187.48 113.92   Q 187.56 114.66 186.83 114.82   C 181.80 115.93 176.46 115.29 176.31 108.86   Q 176.16 102.89 176.28 96.36   Q 176.30 95.66 175.60 95.68   L 171.31 95.78   A 0.97 0.96 75.4 0 1 170.42 95.25   Q 170.26 94.92 170.31 94.60   Q 170.44 93.77 171.27 93.77   L 175.63 93.74   Q 176.24 93.74 176.24 93.12   Z"
     id="path12" />
  <path
     fill="#fbfbfb"
     d="   M 192.97 105.50   C 193.52 110.58 197.44 114.19 202.77 112.87   C 204.44 112.45 205.35 111.23 206.85 110.64   A 0.75 0.75 0.0 0 1 207.85 111.14   Q 208.12 112.16 207.24 112.84   C 201.70 117.09 193.74 115.74 191.32 108.98   C 188.88 102.18 192.01 93.23 200.28 93.36   C 206.49 93.46 208.77 98.56 208.72 104.00   Q 208.71 104.74 207.97 104.74   L 193.69 104.70   Q 192.88 104.70 192.97 105.50   Z   M 193.83 102.54   L 205.77 102.46   A 0.27 0.27 0.0 0 0 206.04 102.19   L 206.04 101.80   A 6.23 6.20 -0.4 0 0 199.77 95.64   L 199.75 95.64   A 6.23 6.20 -0.4 0 0 193.56 101.88   L 193.56 102.27   A 0.27 0.27 0.0 0 0 193.83 102.54   Z"
     id="path14" />
  <path
     fill="#fbfbfb"
     d="   M 224.49 95.42   Q 226.66 92.66 230.45 93.59   C 233.03 94.22 233.34 97.54 233.35 99.72   Q 233.39 107.08 233.33 114.26   Q 233.33 114.93 232.66 114.97   L 231.90 115.01   Q 230.99 115.06 230.99 114.15   L 230.99 98.80   Q 230.98 95.30 227.50 95.70   Q 227.12 95.75 226.74 95.87   Q 224.24 96.70 224.24 99.33   L 224.22 114.05   Q 224.22 115.07 223.20 115.03   L 222.68 115.02   Q 221.87 114.99 221.87 114.18   L 221.84 98.26   Q 221.84 95.76 219.35 95.63   Q 219.00 95.61 218.65 95.66   Q 215.32 96.11 215.32 99.46   L 215.28 114.24   Q 215.28 115.01 214.51 115.03   L 214.02 115.03   A 1.01 1.00 89.4 0 1 213.00 114.02   L 212.96 94.48   Q 212.96 93.83 213.61 93.74   Q 214.83 93.59 215.44 94.61   Q 215.71 95.06 216.13 94.74   Q 220.37 91.53 223.69 95.44   Q 224.10 95.92 224.49 95.42   Z"
     id="path16" />
  <path
     fill="#fbfbfb"
     d="   M 120.22 109.51   Q 120.27 106.98 117.50 106.15   C 114.23 105.17 105.45 103.96 106.57 98.64   Q 107.19 95.70 109.68 94.53   C 114.54 92.22 120.76 93.29 122.76 98.77   Q 123.11 99.71 122.10 99.75   L 121.38 99.78   Q 120.58 99.81 120.24 99.09   Q 118.22 94.75 112.81 95.70   Q 110.39 96.12 109.38 98.01   A 2.47 2.46 -57.6 0 0 110.07 101.12   C 113.55 103.77 122.41 102.97 122.76 108.75   C 123.10 114.15 117.08 115.64 112.73 115.08   Q 107.70 114.42 105.80 110.07   Q 105.30 108.92 106.54 108.71   Q 106.70 108.68 106.85 108.67   Q 108.00 108.61 108.49 109.65   Q 110.33 113.61 116.01 112.91   C 117.87 112.68 120.18 111.66 120.22 109.51   Z"
     id="path18" />
  <path
     fill="#fbfbfb"
     d="   M 163.73 98.84   C 162.19 94.83 156.86 94.88 153.82 96.80   Q 153.20 97.19 153.04 97.90   Q 152.20 101.44 156.15 102.42   Q 158.89 103.11 161.45 103.80   C 167.25 105.37 168.55 112.00 162.62 114.36   C 157.97 116.20 150.98 115.24 149.35 109.60   A 0.68 0.68 0.0 0 1 149.98 108.73   L 150.52 108.71   A 1.70 1.69 -12.8 0 1 152.15 109.73   C 153.89 113.72 159.40 113.65 162.58 111.83   A 2.78 2.78 0.0 0 0 163.48 107.84   Q 162.42 106.30 160.31 105.80   C 157.28 105.09 150.25 103.99 150.20 99.63   C 150.14 93.76 157.22 92.80 161.37 93.88   Q 165.10 94.85 166.31 98.65   Q 166.62 99.61 165.62 99.78   Q 165.49 99.80 165.37 99.82   Q 164.16 99.98 163.73 98.84   Z"
     id="path20" />
  <path
     fill="#fbfbfb"
     d="   M 249.69 96.14   Q 244.99 94.35 241.77 97.45   A 1.34 1.30 71.5 0 0 241.38 98.26   C 240.88 102.56 246.90 103.00 249.88 103.77   C 254.80 105.03 257.50 110.82 252.25 113.81   C 247.77 116.37 240.04 115.70 237.98 109.91   Q 237.56 108.73 238.82 108.72   L 239.25 108.72   Q 240.35 108.72 240.74 109.75   C 242.36 114.00 251.00 114.32 252.44 109.86   C 253.14 107.68 250.19 106.10 248.49 105.73   C 245.32 105.04 238.21 103.67 238.73 99.04   C 239.27 94.17 244.39 93.14 248.43 93.58   Q 253.32 94.10 255.00 98.82   Q 255.27 99.60 254.46 99.68   L 253.49 99.77   A 1.19 1.18 78.5 0 1 252.25 98.95   Q 251.59 96.87 249.69 96.14   Z"
     id="path22" />
  <path
     fill="#fbfbfb"
     d="   M 136.85 110.43   L 143.47 94.57   Q 143.80 93.78 144.65 93.77   L 145.94 93.75   Q 146.71 93.74 146.41 94.45   Q 141.08 106.82 135.60 118.83   Q 133.65 123.08 128.93 123.50   A 1.57 1.57 0.0 0 1 127.73 123.09   Q 126.68 122.13 127.38 121.32   Q 127.71 120.93 128.22 120.97   C 132.04 121.26 134.18 117.53 134.77 114.31   Q 134.88 113.73 134.64 113.19   L 126.05 94.49   Q 125.72 93.78 126.50 93.79   L 127.93 93.79   Q 128.64 93.79 128.93 94.44   L 136.12 110.44   A 0.40 0.40 0.0 0 0 136.85 110.43   Z"
     id="path24" />
  <circle
     fill="#fbfbfb"
     cx="95.36"
     cy="104.02"
     r="2.06"
     id="circle26" />
  <circle
     fill="#fbfbfb"
     cx="265.12"
     cy="104.03"
     r="2.11"
     id="circle28" />
</svg>
