<?xml version="1.0" encoding="UTF-8" standalone="no"?>
<svg
   version="1.1"
   viewBox="0 0 342.50226 118.74447"
   id="svg30"
   sodipodi:docname="sonnus (1).svg"
   width="342.50226"
   height="118.74447"
   inkscape:version="1.2.2 (732a01da63, 2022-12-09)"
   xmlns:inkscape="http://www.inkscape.org/namespaces/inkscape"
   xmlns:sodipodi="http://sodipodi.sourceforge.net/DTD/sodipodi-0.dtd"
   xmlns="http://www.w3.org/2000/svg"
   xmlns:svg="http://www.w3.org/2000/svg">
  <defs
     id="defs34" />
  <sodipodi:namedview
     id="namedview32"
     pagecolor="#ffffff"
     bordercolor="#000000"
     borderopacity="0.25"
     inkscape:showpageshadow="2"
     inkscape:pageopacity="0.0"
     inkscape:pagecheckerboard="0"
     inkscape:deskcolor="#d1d1d1"
     showgrid="false"
     inkscape:zoom="1.7247191"
     inkscape:cx="121.17915"
     inkscape:cy="16.234528"
     inkscape:window-width="1366"
     inkscape:window-height="705"
     inkscape:window-x="-8"
     inkscape:window-y="-8"
     inkscape:window-maximized="1"
     inkscape:current-layer="svg30" />
  <path
     fill="#e73c1e"
     d="m 137.30191,34.02 a 34.02,34.02 0 0 1 -34.02,34.02 A 34.02,34.02 0 0 1 69.261913,34.02 34.02,34.02 0 0 1 103.28191,0 a 34.02,34.02 0 0 1 34.02,34.02 z M 93.241913,14.91 a 0.39,0.39 0 0 0 -0.6,0.33 v 37.92 a 0.39,0.39 0 0 0 0.6,0.33 L 121.59191,34.52 a 0.39,0.39 0 0 0 0,-0.64 z"
     id="path2"
     style="fill:#1630be;fill-opacity:1" />
  <path
     fill="#e73c1e"
     d="m 45.461913,52.83 0.04,-12.38 q 0.01,-0.46 -0.45,-0.47 -10.21,-0.25 -21.44,0.01 -6.02,0.14 -9.77,-1.28 C 5.4719127,35.54 -0.29808726,28.36 0.01191274,19.22 0.37191274,8.58 8.6219127,0.26 19.351913,0.25 q 8.29,0 17.18,-0.12 c 8.16,-0.11 14.23,1.29 19.17,7.35 a 0.86,0.86 0 0 1 -0.06,1.15 l -7.65,7.64 a 0.72,0.72 0 0 1 -0.98,0.04 c -2.19,-1.91 -4.7,-2.86 -7.63,-2.84 q -12.65,0.09 -24.16,0.02 a 0.72,0.72 0 0 0 -0.72,0.72 l 0.04,12.31 a 0.67,0.67 0 0 0 0.67,0.67 q 11.28,0.08 24.84,-0.06 c 6.94,-0.07 12.12,3.14 16.21,8.58 7.72,10.25 2.87,26.49 -9.8,30.17 q -3.01,0.88 -6.39,0.82 -9.76,-0.15 -21.45,0 c -7.67,0.1 -13.3300003,-2.21 -17.86000026,-8.35 a 1.18,1.17 49.6 0 1 0.12,-1.53 L 8.4519127,49.28 q 0.44,-0.44 0.84,0.05 c 2.0900003,2.63 5.0100003,4.22 8.4600003,4.2 q 14.7,-0.07 27,-0.01 0.7,0.01 0.71,-0.69 z"
     id="path4"
     style="fill:#1630be;fill-opacity:1" />
  <path
     fill="#e73c1e"
     d="m 189.77191,14.24 -28.78,-0.01 a 0.49,0.5 0.6 0 0 -0.5,0.5 V 66.2 a 0.47,0.46 0 0 1 -0.47,0.46 l -11.44,-0.01 q -0.8,0 -0.79,-0.8 0.18,-16.52 -0.06,-31.24 -0.16,-10.54 1.55,-15.71 c 6.19,-18.69 29.35,-24.47 43.83,-12.21 q 9.85,8.34 9.88,22.3 0.04,18.52 0,36.92 -0.01,0.74 -0.74,0.74 l -11.25,0.02 a 0.65,0.65 0 0 1 -0.66,-0.65 l -0.02,-51.22 q 0,-0.56 -0.55,-0.56 z"
     id="path6"
     style="fill:#1630be;fill-opacity:1" />
  <path
     fill="#e73c1e"
     d="m 297.12191,14.25 -0.01,12.26 q 0,0.66 0.66,0.66 14.02,-0.09 26.95,0.07 c 8.9,0.11 16.99,9.51 17.71,17.99 0.73,8.68 -4.27,17.54 -12.73,20.4 q -3.67,1.23 -8.83,1.09 -8.97,-0.26 -18.49,-0.02 c -8.48,0.2 -14.15,-1.78 -19,-8.22 q -0.67,-0.88 0.11,-1.66 l 7.52,-7.56 a 0.53,0.53 0 0 1 0.8,0.05 c 1.96,2.62 4.91,4.22 8.21,4.21 q 15.05,-0.04 27.52,-0.02 a 0.48,0.48 0 0 0 0.48,-0.48 V 40.29 q 0,-0.32 -0.32,-0.33 -10.04,-0.18 -21.19,0.01 -6.35,0.1 -9.85,-1.17 -5.76,-2.08 -9.55,-6.49 c -8.63,-10.04 -4.67,-25.96 7.6,-30.7 q 4.4,-1.7 11.88,-1.47 6.37,0.2 12.51,0.03 c 8.2,-0.21 13.86,1.24 19.2,7.32 a 0.79,0.79 0 0 1 -0.03,1.08 l -7.87,7.82 a 0.62,0.62 0 0 1 -0.89,0 c -1.94,-2.01 -4.54,-2.92 -7.31,-2.9 q -11.83,0.06 -24.32,0 -0.76,0 -0.76,0.76 z"
     id="path8"
     style="fill:#1630be;fill-opacity:1" />
  <path
     fill="#e73c1e"
     d="M 257.52191,53.22 V 2.09 a 0.61,0.6 0 0 1 0.61,-0.6 l 11.53,0.03 q 0.61,0 0.6,0.61 -0.14,15.6 0.02,34.92 0.06,7.51 -1.36,11.78 c -8.41,25.38 -44.22,25.5 -52.49,-0.09 q -1.32,-4.1 -1.27,-9.84 0.18,-19.26 0.04,-36.68 0,-0.73 0.72,-0.72 l 11.31,0.01 q 0.75,0 0.75,0.75 l -0.02,51.23 a 0.51,0.5 0 0 0 0.51,0.5 l 28.28,-0.01 q 0.77,0 0.77,-0.76 z"
     id="path10"
     style="fill:#1630be;fill-opacity:1" />
  <path
     fill="#fbfbfb"
     d="m 167.21191,88.24 0.01,-3.99 q 0,-0.49 0.5,-0.52 l 1.76,-0.08 q 0.37,-0.01 0.37,0.36 v 4.41 q 0,0.55 0.54,0.56 l 6.68,0.12 a 0.68,0.69 3.1 0 1 0.67,0.75 l -0.03,0.29 q -0.09,0.91 -0.99,0.89 l -6.33,-0.1 q -0.53,-0.01 -0.54,0.53 -0.06,6.72 0.07,12.54 c 0.09,4.42 4.04,4.63 7.34,4.02 q 1.03,-0.19 1.15,0.85 l 0.03,0.28 q 0.09,0.76 -0.66,0.93 c -5.02,1.14 -10.31,0.49 -10.5,-6.07 q -0.16,-5.85 -0.02,-12.53 0.02,-0.58 -0.57,-0.56 l -4.55,0.12 q -0.89,0.02 -0.85,-0.87 l 0.03,-0.46 q 0.03,-0.67 0.69,-0.68 l 4.47,-0.04 q 0.73,-0.01 0.73,-0.75 z"
     id="path12"
     style="fill:#000000;fill-opacity:1" />
  <path
     fill="#fbfbfb"
     d="m 183.95191,100.73 q 0.29,3.05 2.01,4.98 4.85,5.43 11.68,0.18 a 0.57,0.57 0 0 1 0.59,-0.08 q 0.46,0.21 0.62,0.66 0.28,0.82 -0.39,1.38 c -5.53,4.59 -13.85,3.25 -16.26,-3.84 -2.27,-6.67 0.78,-15.32 8.8,-15.39 6.35,-0.06 8.75,5.08 8.69,10.62 q -0.01,0.75 -0.77,0.75 l -14.26,-0.04 q -0.79,0 -0.71,0.78 z m 0.85,-2.94 11.94,-0.08 a 0.27,0.27 0 0 0 0.27,-0.27 v -0.39 a 6.2,6.23 89.6 0 0 -6.27,-6.16 h -0.02 a 6.2,6.23 89.6 0 0 -6.19,6.24 v 0.39 a 0.27,0.27 0 0 0 0.27,0.27 z"
     id="path14"
     style="fill:#000000;fill-opacity:1" />
  <path
     fill="#fbfbfb"
     d="m 215.46191,90.68 q 2.2,-2.76 5.84,-1.86 c 2.86,0.7 2.94,3.97 2.98,6.29 q 0.13,7.15 0,14.43 -0.01,0.64 -0.65,0.68 l -0.76,0.04 q -0.91,0.05 -0.91,-0.86 V 94.05 q -0.01,-3.51 -3.49,-3.09 -0.38,0.04 -0.76,0.16 -2.49,0.82 -2.5,3.44 l -0.02,14.87 q -0.01,0.89 -0.9,0.86 l -0.64,-0.02 q -0.81,-0.03 -0.81,-0.84 l -0.02,-15.91 q -0.01,-2.51 -2.52,-2.63 -0.36,-0.02 -0.74,0.04 -3.27,0.49 -3.27,3.79 l -0.04,14.77 q 0,0.77 -0.77,0.79 h -0.49 a 1.01,1 89.4 0 1 -1.02,-1.01 l -0.04,-19.53 q 0,-0.67 0.66,-0.75 1.21,-0.14 1.81,0.86 0.28,0.46 0.7,0.14 4.23,-3.21 7.56,0.7 0.41,0.47 0.8,-0.01 z"
     id="path16"
     style="fill:#000000;fill-opacity:1" />
  <path
     fill="#fbfbfb"
     d="m 107.67191,108.03 c 3.99,-0.75 5.13,-5.33 0.79,-6.63 -3.27,-0.99 -7.4,-1.46 -9.879997,-3.96 -2.44,-2.45 -0.58,-6.37 2.039997,-7.65 4.81,-2.34 11.07,-1.24 13.09,4.17 a 0.78,0.77 78.9 0 1 -0.7,1.05 l -0.65,0.02 q -0.75,0.02 -1.1,-0.64 -2.87,-5.43 -9.22,-2.79 c -3.159997,1.32 -2.179997,4.88 0.76,5.82 q 2.89,0.93 5.76,1.56 c 4.52,1 7.43,6.05 3.23,9.54 -2.4,2 -5.98,2.23 -8.93,1.66 q -4.469997,-0.87 -6.199997,-5.14 -0.41,-1.01 0.68,-1.06 l 0.44,-0.02 q 1.16,-0.05 1.68,0.99 2.129997,4.22 8.209997,3.08 z"
     id="path18"
     style="fill:#000000;fill-opacity:1" />
  <path
     fill="#fbfbfb"
     d="m 154.73191,94.18 c -1.37,-3.72 -5.98,-4.02 -9.11,-2.64 -2.11,0.93 -2.54,4.02 -0.46,5.25 2.95,1.74 6.44,1.58 9.48,3.26 4.07,2.25 3.52,7.24 -0.38,9.27 -4.45,2.29 -11.88,1.41 -13.85,-4.16 q -0.44,-1.24 0.88,-1.2 0.13,0 0.26,0 1.12,-0.02 1.56,1.01 c 1.72,4.02 7.3,3.93 10.46,2.09 a 2.76,2.77 59.4 0 0 0.98,-3.81 q -0.9,-1.48 -2.74,-2.01 c -3.21,-0.93 -6.92,-1.25 -9.47,-3.69 -2.48,-2.38 -0.79,-6.44 1.88,-7.72 4.58,-2.19 11.32,-1.5 13.08,4.13 q 0.27,0.86 -0.62,1.03 l -0.39,0.07 q -1.15,0.22 -1.56,-0.88 z"
     id="path20"
     style="fill:#000000;fill-opacity:1" />
  <path
     fill="#fbfbfb"
     d="m 240.68191,91.39 q -4.67,-1.77 -7.89,1.26 a 1.38,1.45 70.1 0 0 -0.44,0.89 q -0.32,3.16 3.12,4.07 c 3.05,0.81 6.57,1.2 8.97,3.4 2.69,2.45 1.77,6.32 -1.17,8.02 -4.54,2.63 -12.18,1.92 -14.35,-3.88 a 0.87,0.87 0 0 1 0.81,-1.17 l 0.49,-0.01 q 0.98,0 1.39,0.89 1.88,4.12 7.75,3.26 3.55,-0.52 4.17,-3.58 0.1,-0.52 -0.18,-0.95 c -2.67,-4.13 -9.22,-2.46 -12.73,-6.32 -2.24,-2.47 -0.34,-6.37 2.3,-7.54 4.79,-2.11 11.05,-1.3 13.05,4.35 q 0.27,0.77 -0.54,0.85 l -0.95,0.09 q -0.95,0.09 -1.25,-0.81 -0.69,-2.11 -2.55,-2.82 z"
     id="path22"
     style="fill:#000000;fill-opacity:1" />
  <path
     fill="#fbfbfb"
     d="m 127.82191,105.68 6.62,-15.86 q 0.33,-0.79 1.18,-0.8 l 1.29,-0.02 q 0.77,-0.01 0.47,0.7 -5.33,12.36 -10.81,24.37 -1.97,4.31 -6.77,4.67 a 1.55,1.56 68.1 0 1 -1.31,-0.55 q -0.75,-0.91 -0.12,-1.63 0.34,-0.38 0.84,-0.34 c 3.79,0.31 5.92,-3.46 6.54,-6.63 a 1.86,1.94 36.8 0 0 -0.14,-1.14 l -8.59,-18.71 q -0.32,-0.71 0.45,-0.7 h 1.43 q 0.71,0 1,0.65 l 7.19,16 a 0.4,0.4 0 0 0 0.73,-0.01 z"
     id="path24"
     style="fill:#000000;fill-opacity:1" />
  <circle
     fill="#fbfbfb"
     cx="86.331917"
     cy="99.269997"
     r="2.0599999"
     id="circle26"
     style="fill:#000000;fill-opacity:1" />
  <circle
     fill="#fbfbfb"
     cx="256.09192"
     cy="99.279999"
     r="2.1099999"
     id="circle28"
     style="fill:#000000;fill-opacity:1" />
</svg>
