<?xml version="1.0" encoding="UTF-8" standalone="no"?>
<!-- Created with Inkscape (http://www.inkscape.org/) -->

<svg
   width="18.002251mm"
   height="18.002251mm"
   viewBox="0 0 18.002251 18.002251"
   version="1.1"
   id="svg819"
   inkscape:version="1.2.2 (732a01da63, 2022-12-09)"
   sodipodi:docname="sonnusPlay.svg"
   xmlns:inkscape="http://www.inkscape.org/namespaces/inkscape"
   xmlns:sodipodi="http://sodipodi.sourceforge.net/DTD/sodipodi-0.dtd"
   xmlns="http://www.w3.org/2000/svg"
   xmlns:svg="http://www.w3.org/2000/svg">
  <sodipodi:namedview
     id="namedview821"
     pagecolor="#ffffff"
     bordercolor="#000000"
     borderopacity="0.25"
     inkscape:showpageshadow="2"
     inkscape:pageopacity="0.0"
     inkscape:pagecheckerboard="0"
     inkscape:deskcolor="#d1d1d1"
     inkscape:document-units="mm"
     showgrid="false"
     inkscape:zoom="0.49085999"
     inkscape:cx="-18.335167"
     inkscape:cy="-77.415151"
     inkscape:window-width="1366"
     inkscape:window-height="705"
     inkscape:window-x="-8"
     inkscape:window-y="-8"
     inkscape:window-maximized="1"
     inkscape:current-layer="layer1" />
  <defs
     id="defs816" />
  <g
     inkscape:label="Capa 1"
     inkscape:groupmode="layer"
     id="layer1"
     transform="translate(-110.12229,-169.41448)">
    <path
       fill="#e73c1e"
       d="m 128.12454,178.4156 a 9.0011249,9.0011249 0 0 1 -9.00113,9.00113 9.0011249,9.0011249 0 0 1 -9.00112,-9.00113 9.0011249,9.0011249 0 0 1 9.00112,-9.00112 9.0011249,9.0011249 0 0 1 9.00113,9.00112 z M 116.467,173.35942 a 0.1031875,0.1031875 0 0 0 -0.15875,0.0873 v 10.033 a 0.1031875,0.1031875 0 0 0 0.15875,0.0873 l 7.50093,-5.01914 a 0.1031875,0.1031875 0 0 0 0,-0.16934 z"
       id="path2"
       style="fill:#1630be;fill-opacity:1;stroke-width:0.264583" />
  </g>
</svg>
